<svg width="270" height="270" viewBox="0 0 270 270" fill="none" xmlns="http://www.w3.org/2000/svg">
<path fill-rule="evenodd" clip-rule="evenodd" d="M45.5864 141.708C43.4878 118.228 52.5602 91.7824 68.3917 75.0069C84.6104 57.8209 103.414 47.5667 128.385 45.5488C152.07 43.6327 178.407 52.4642 195.075 68.3388C212.315 84.7583 222.427 103.095 224.519 128.418C226.095 147.463 220.96 166.962 211.358 182.243C188.341 218.877 144.778 233.999 102.876 218.847C92.8325 215.216 81.08 207.579 75.0449 201.747C57.8401 185.118 47.8739 167.325 45.5864 141.71V141.708ZM134.471 132.928C137.269 131.879 138.424 136.322 135.84 137.205C133.199 138.107 131.126 134.184 134.471 132.928ZM124.434 128.507L135.064 146.966C136.031 145.972 145.352 129.367 145.555 128.415L124.433 128.508L124.434 128.507ZM135.064 155.474L117.238 124.146L152.895 124.212L135.064 155.474ZM110.083 119.91C110.905 122.11 112.048 123.748 113.176 125.706L135.064 163.945L136.127 162.425C139.596 156.497 159.773 121.14 160.023 119.882L110.083 119.909V119.91ZM135.064 172.539C134.096 171.468 131.767 167.088 130.911 165.523C127.795 159.832 103.399 117.627 102.799 115.62L167.324 115.643C166.698 117.755 142.225 160.041 139.086 165.747C138.143 167.461 136.282 171.109 135.062 172.537L135.064 172.539ZM134.818 181.237C94.3538 181.105 73.1975 131.836 102.47 102.432C110.907 93.9566 122.156 88.8309 135.064 88.8173C160.273 88.7901 181.151 109.286 181.287 134.684C181.425 160.386 160.659 181.206 135.308 181.242C136.062 179.027 162.08 133.791 164.642 129.187C166.394 126.041 173.838 113.667 174.528 111.389L95.6008 111.387C96.6521 114.784 133.534 177.463 134.816 181.237H134.818ZM86.1154 141.707C89.6743 166.308 112.078 187.73 141.502 183.989C166.411 180.821 187.831 157.633 183.99 128.486C180.517 102.133 156.123 82.3952 128.529 86.1118C101.444 89.7577 82.2672 115.092 86.1154 141.707ZM79.6076 2.72458L190.624 2.71915L190.595 19.5953L156.292 19.723L156.333 33.4492L236.597 33.4682L236.699 113.771L250.438 113.76L250.446 79.4409L267.333 79.5795L267.305 190.609L250.45 190.586L250.326 156.28L236.608 156.323L236.604 236.623L156.323 236.723L156.305 250.467L190.64 250.475L190.506 267.353L79.503 267.343L79.5315 250.478L113.831 250.345L113.778 236.624L33.5243 236.615L33.4129 156.308L19.6868 156.301L19.6841 190.622L2.80659 190.501L2.82696 79.4559L19.6637 79.4926L19.8009 113.791L33.5188 113.756L33.5256 33.4533L113.804 33.3445L113.818 19.6048L79.4867 19.6156L79.6103 2.72458H79.6076ZM76.9099 22.1459L111.199 22.1975L111.203 30.6838C98.4696 31.3442 84.048 30.73 71.1967 30.73C65.5745 30.73 33.6995 30.3414 31.0005 30.9284L30.9217 111.027L22.2717 111.039L22.2622 76.9474C20.3809 76.4894 2.13828 76.5152 0.508262 76.9202C-0.100278 78.1405 0.149658 82.1886 0.151016 83.7826L0.152375 134.685C0.152375 154.074 -0.206229 173.805 0.176825 193.152L22.2853 193.217L22.2649 159.072L30.8932 158.868L30.9298 239.172L111.215 239.216L111.25 247.741L77.1734 247.76C76.5921 249.916 76.789 266.861 76.9656 269.995L193.152 270C193.331 266.803 193.546 249.971 192.967 247.811L158.945 247.748L158.908 239.237L239.158 239.222L239.193 158.879L247.849 158.92L247.87 193.197L269.961 193.21C270.128 155.763 269.685 117.96 269.973 80.6259L269.911 77.8252C269.892 77.7043 269.865 77.6105 269.843 77.5045L247.999 76.7299L247.859 110.92L239.341 111.037L239.204 30.9203C236.046 30.2422 165.565 30.8781 158.976 30.7056L158.863 22.2125L193.103 22.1962L193.218 0.1223L77.0376 0L76.914 22.1473L76.9099 22.1459ZM113.583 186.932C115.217 187.095 118.69 188.54 120.68 189.091C124.21 190.07 124.842 189.483 127.589 191.662C130.582 194.039 132.802 197.553 134.191 201.187L135.062 202.97C135.27 202.674 135.174 202.901 135.51 202.212C137.234 198.695 137.917 195.311 142.529 191.654C145.123 189.596 145.652 190.1 149.181 189.183C151.377 188.612 154.622 187.231 156.482 186.977C157.024 188.945 157.596 190.155 157.601 192.601C157.632 205.128 144.067 202.137 137.496 213.655C136.707 215.04 136.044 217.041 135.062 218.353C132.741 215.309 132.024 208.605 121.568 204.361C118.334 203.049 115.483 200.986 113.97 198.284C111.559 193.974 112.533 191.343 113.583 186.932ZM194.074 194.123C190.231 193.137 188.587 191.74 183.487 191.698C174.942 191.627 170.075 197.772 162.615 193.827C160.304 192.606 157.069 189.45 156.838 186.641L168.286 180.505C174.408 179.215 178.597 181.643 183.226 183.224C181.927 178.995 179.287 175.149 180.506 168.497L186.995 156.846C190.824 157.416 197.239 163.619 194.129 173.065C192.868 176.894 191.622 178.67 191.674 183.479C191.728 188.487 193.038 190.215 194.074 194.122V194.123ZM83.7044 156.687C84.1784 160.127 89.0712 165.649 89.6023 168.28C90.0968 170.731 89.8808 173.872 89.3537 176.341C88.737 179.239 87.6055 180.935 86.8788 183.239C91.1413 181.873 94.9624 179.31 101.622 180.486L113.405 186.76C111.464 192.756 105.214 196.92 97.0474 194.119C85.4105 190.13 86.4768 191.255 76.008 194.083C76.9235 190.35 78.3878 188.551 78.4285 183.483C78.4992 174.789 72.3717 170.355 76.3041 162.607C77.5741 160.104 80.6114 157.204 83.7044 156.687ZM130.811 82.5691C161.132 80.0497 185.298 103.304 187.532 130.662C190.024 161.161 166.913 185.243 139.428 187.523C109.067 190.041 84.878 166.884 82.5932 139.412C80.0613 108.953 103.216 84.8616 130.812 82.5691H130.811ZM191.655 142.502C195.916 137.195 201.177 136.285 202.971 135.036C201.68 134.134 199.668 133.869 196.522 131.839C189.931 127.585 190.399 125.188 189.116 120.603C188.538 118.535 187.306 115.619 186.971 113.78C190.529 112.003 194.81 112.02 198.251 113.969C204.952 117.764 203.674 124.536 209.801 129.776C211.17 130.946 212.142 131.674 213.865 132.719C215.157 133.503 217.108 134.126 218.361 135.036C215.092 137.53 208.842 137.895 204.357 148.534C199.135 160.916 190.87 156.963 186.942 156.659C187.151 154.948 188.697 151.021 189.192 149.245C190.174 145.735 189.564 145.107 191.656 142.502H191.655ZM51.7655 135.036C55.1954 132.469 61.2373 132.237 65.7715 121.541C69.1456 113.579 76.1384 110.152 83.1665 113.779C82.9804 115.396 81.5011 118.902 80.9673 120.962C80.0789 124.388 80.5775 124.975 78.4652 127.563C74.0234 133.009 69.1021 133.714 67.1706 135.036C68.9907 136.305 74.1389 137.134 78.4693 142.506C80.5815 145.124 80.0681 145.782 81.042 149.402C81.5908 151.442 83.0388 154.896 83.1257 156.626C78.9502 156.865 76.7999 159.012 71.865 156.112C64.3764 151.714 66.8038 143.264 56.2752 137.322C54.9658 136.582 53.0369 135.948 51.7655 135.035V135.036ZM156.826 83.7799C157.301 78.9857 164.018 72.6628 173.334 76.0519C183.631 79.797 184.627 78.8349 194.116 75.9798C193.246 79.8921 191.663 81.535 191.7 86.942C191.732 91.8014 193.011 93.4172 194.218 97.256C197.156 106.596 190.839 112.741 186.996 113.246C185.784 112.217 184.376 108.606 183.593 107.215C181.23 103.02 178.901 101.897 180.86 93.4009C181.447 90.8543 182.625 88.9695 183.243 86.836C179.532 87.9408 175.208 90.9793 168.211 89.5334C165.984 89.0728 159.128 83.5924 156.826 83.7799ZM76.0528 75.9663C79.9879 76.9107 81.6954 78.434 86.9875 78.3824C91.9618 78.3334 93.4084 77.0425 97.2906 75.848C105.267 73.3911 111.993 77.3007 113.445 83.553C111.47 84.1699 109.339 85.3888 107.289 86.5412C105.487 87.5535 103.668 89.2454 101.569 89.6068C94.6268 90.8013 90.7501 87.9802 86.8951 86.8469C87.2415 88.04 87.8365 89.0891 88.2508 90.2115C93.7548 105.102 83.7519 107.589 83.8266 113.287C78.3701 112.809 72.9395 105.577 76.099 96.7533C80.2039 85.2923 78.4883 85.4418 76.0514 75.969L76.0528 75.9663ZM113.634 83.1127C112.704 78.6297 111.449 76.2394 114.002 71.8216C117.952 64.9891 124.392 66.5097 129.797 60.2615C134.038 55.36 133.314 54.1275 135.062 51.695C136.086 53.0607 136.63 54.9605 137.519 56.3995C138.34 57.7285 139.459 59.1649 140.362 60.2248C146.868 67.8523 161.348 65.8561 156.52 83.1385C154.777 82.9251 151.342 81.4929 149.163 80.9072C145.657 79.9628 145.202 80.5457 142.53 78.4204C139.288 75.8412 137.34 72.4535 135.835 68.6391L135.065 67.1103C135.009 67.1919 134.944 67.3047 134.909 67.3658C133.772 69.4245 133.88 70.3989 131.869 73.5542C127.777 79.9682 125.315 79.7331 120.736 80.9887C118.743 81.535 115.101 83.0189 113.636 83.1154L113.634 83.1127ZM51.2127 138.898C51.8932 151.763 55.0432 162.27 59.9115 172.321C62.1542 176.951 65.0624 181.603 67.9339 185.341C69.7731 187.734 75.303 194.227 77.6842 196.303C81.4658 199.598 84.3319 202.021 89.548 205.488C93.7398 208.274 98.5824 210.778 103.366 212.759C125.541 221.945 150.968 220.847 172.33 210.221C180.47 206.171 184.665 202.917 191.116 197.432C192.649 196.128 194.547 194.31 196.301 192.434C219.015 168.124 226.457 130.97 210.21 97.7602C207.101 91.406 200.096 80.9615 194.88 76.238C193.79 75.2515 193.373 74.6006 192.439 73.773C175.769 59.0113 155.365 49.9326 131.253 51.1773C113.925 52.0701 97.6329 58.0764 84.7775 67.8808C82.1273 69.9001 76.1506 75.0286 73.817 77.6295C61.4397 91.4223 49.8054 112.284 51.2127 138.898ZM82.145 16.9576L116.271 16.9332L116.462 36.0243L36.2355 36.1221L36.1798 116.416L17.0502 116.396L17.0095 82.0935L5.41326 82.1248L5.43363 187.947L17.0027 187.972L17.0122 153.834L36.1079 153.656L36.1866 233.896L116.473 233.962L116.428 253.095L82.1518 253.148L82.1694 264.729L187.967 264.725L187.975 253.123L153.859 253.143L153.673 234.041L233.89 233.959L233.947 153.649L253.003 153.66L253.131 187.844L264.53 187.966L264.697 82.1329L253.118 82.1057L253.126 116.236L234.03 116.422L233.935 36.1642L153.667 36.1167L153.703 16.9739L187.966 16.9332L187.959 5.34317L82.2007 5.35948L82.145 16.9604V16.9576Z" fill="url(#paint0_linear_1_86)"/>
<defs>
<linearGradient id="paint0_linear_1_86" x1="-0.757723" y1="-50.8525" x2="291.11" y2="241.012" gradientUnits="userSpaceOnUse">
<stop stop-color="#EBB57C"/>
<stop offset="1" stop-color="#94622C"/>
</linearGradient>
</defs>
</svg>
