<svg width="334" height="232" viewBox="0 0 334 232" fill="none" xmlns="http://www.w3.org/2000/svg">
<path fill-rule="evenodd" clip-rule="evenodd" d="M187.388 159.904C188.907 160.677 191.165 160.991 192.896 161.898C194.483 162.729 197.019 164.101 195.687 165.82C193.892 167.356 192.211 162.895 186.016 162.821C184.697 164.338 173.159 185.934 172.226 188.432C175.042 188.826 183.555 192.53 180.496 194.743C178.479 196.201 177.637 191.312 170.653 191.003C168.681 195.525 162.111 204.531 162.297 209.422C162.465 213.809 162.319 218.331 162.323 222.745C162.327 228.091 161.392 230.99 166.971 232C165.786 228.387 165.268 227.895 166.432 223.692C167.562 219.613 170.724 212.882 174.048 210.778C177.481 208.607 179.206 210.146 182.102 211.264C183.447 208.943 194.592 195.144 196.687 192.424C204.268 182.58 210.75 173.62 217.589 163.106C219.216 160.603 222.699 155.357 223.685 152.505C225.23 148.034 227.464 145.058 229.812 141.847C231.754 139.192 233.566 137.879 235.729 135.463C236.647 134.439 237.095 134.01 238.813 134.483C239.385 137.423 236.639 137.279 232.059 143.068C230.287 145.307 226.973 149.66 226.281 153.088C241.378 154.807 244.761 147.931 250.656 139.112C257.639 128.666 266.711 113.449 274.365 104.054C275.1 103.153 275.852 102.359 276.439 101.354C278.007 98.6766 280.897 95.4782 282.904 93.1128L300.885 76.9297C301.959 76.0921 302.796 75.1701 304.024 76.1467C305.588 77.9539 301.886 79.4011 298.991 81.8671C295.24 85.0647 290.332 89.0024 287.223 92.6484C286.608 93.3693 282.168 98.4693 281.94 98.6014C282.746 98.4931 286.155 96.1707 287.307 95.4629C289.327 94.2207 290.981 93.4384 293.049 92.3113C305.626 85.4601 325.251 82.0237 329.865 75.8296C339.094 63.4376 331.962 34.0502 317.502 24.7782C303.332 15.6936 283.508 32.4341 256.718 28.8173C250.146 27.9298 248.754 26.2984 243.733 24.0335C225.908 15.9915 214.864 24.4543 195.821 22.8412C197.757 28.2753 198.067 30.6875 194.691 36.3994C193.779 37.9411 193.501 38.9967 191.432 38.3733C190.56 35.2033 195.245 33.4037 194.504 27.4116C194.321 25.9283 193.1 23.4785 192.142 22.6301C191.765 22.2961 187.759 20.6332 187.042 20.2425L186.209 22.1319C183.425 28.9616 177.195 25.754 174.406 20.8881C170.121 13.4096 175.35 8.96366 174.249 0.937749C169.562 0.377302 165.942 3.4183 163.838 5.91114C161.107 9.14791 162.986 12.3187 162.159 20.0367C161.52 25.9966 161.135 27.2772 163.452 32.8548C165.103 36.8255 167.382 40.3088 169.802 42.5651C181.187 53.1722 201.412 51.7457 210.34 65.5818C218.239 77.8249 215.069 105.642 210.098 119.097C203.471 137.028 191.302 148.526 187.388 159.902V159.904ZM166.729 63.3915C166.304 66.6045 164.184 74.7624 163.17 78.3585C162.546 80.5703 162.722 82.3177 165.555 81.0817C167.623 80.1788 173.695 65.9834 166.729 63.3915ZM128.931 120.226C130.167 119.9 131.011 119.345 132.338 118.898C133.454 118.522 135.533 118.262 136.256 117.895L135.44 113.725C132.776 113.163 131.691 114.087 129.439 114.358C127.238 114.623 124.622 109.32 115.384 107.141C116.182 109.894 120.038 111.405 122.457 113.099C126.171 115.699 126.47 116.029 128.932 120.225L128.931 120.226ZM182.377 23.295C185.853 18.5404 184.097 17.9446 181.722 14.6004C180.457 12.8208 177.698 8.21204 177.122 5.79751C177.063 5.87659 177 5.91114 176.98 6.05931L175.935 11.1471C175.376 13.3666 174.82 14.5827 175.586 16.9903C176.612 20.2164 178.673 23.4808 182.376 23.295H182.377ZM170.045 230.929C171.207 228.343 173.417 224.906 174.924 222.258C176.504 219.481 178.984 216.082 180.141 213.489C174.211 209.363 170.292 219.832 168.88 224.379C168.481 225.662 168.248 226.772 168.475 228.216C168.704 229.674 169.175 230.342 170.045 230.929ZM154.931 88.2339L149.616 79.8103C147.721 76.8123 146.405 74.5367 144.656 70.9629C138.366 75.6185 145.463 83.8754 149.379 87.9022C151.692 90.2807 152.629 90.2546 154.931 88.2339ZM142.158 213.865C142.623 215.67 146.284 220.83 147.433 222.707C148.431 224.34 151.957 230.619 153.364 231.42C154.388 228.972 155.638 228.543 154.643 224.784C154.108 222.755 152.987 220.17 152.055 218.427C150.123 214.817 146.934 209.253 142.159 213.865H142.158ZM135.443 15.7773C136.11 24.8043 142.696 21.2229 145.692 17.1523C150.384 10.7786 146.197 9.38284 145.422 2.40336L143.078 6.0025C141.335 9.0458 138.144 14.1566 135.443 15.7773ZM183.47 112.633L183.024 115.627C188.019 115.571 190.881 116.303 194.562 118.308C197.384 116.84 200.286 115.031 203.401 113.422C208.098 110.996 211.249 110.401 210.583 107.119C199.422 105.869 191.63 113.78 190.739 113.908C190.406 113.955 186.093 112.41 183.47 112.633ZM196.195 120.628C198.156 128.502 197.153 130.332 197.171 138.127C198.76 136.756 203.495 128.471 204.298 126.935C205.903 123.869 208.572 117.163 209.316 113.369C206.527 114.396 197.964 118.991 196.195 120.628H196.195ZM138.503 102.02C140.311 101.133 140.876 99.4175 146.167 98.2237C148.287 97.7454 156.328 97.003 153.572 100.171C151.829 101.28 144.985 99.019 140.392 104.075C138.089 106.61 136.662 114.683 139.241 117.844C140.39 118.541 142.565 118.896 143.676 119.551C145.213 120.457 145.985 121.384 147.199 122.522C150.053 125.197 153.205 127.239 152.609 129.606C149.213 130.739 149.233 126.489 142.975 122.303C138.566 119.353 133.534 120.869 129.412 123.146C128.51 127.964 128.069 133.821 129.535 138.506C130.954 143.046 133.481 146.755 134.707 150.701C138.877 150.805 150.683 149.515 154.096 148.178C161.412 145.313 159.834 139.556 159.569 131.556C159.337 124.513 158.845 117.631 158.431 110.467C158.199 106.451 158.199 93.1136 156.278 90.6093C151.058 94.5424 147.848 90.825 143.931 85.4908C138.393 77.9439 138.658 76.2971 141.312 70.3311C135.324 72.3794 131.211 77.9969 131.859 84.7814C132.184 88.194 133.353 91.5229 134.477 94.2729C135.261 96.1915 137.267 100.337 138.504 102.019L138.503 102.02ZM161.746 83.7434C160.995 85.2175 160.266 88.0066 159.749 89.5943C158.974 91.9712 159.967 93.7692 160.146 96.4632C161.208 112.41 161.719 126.679 162.379 142.593C163.902 143.524 164.016 144.723 167.503 145.964C171.297 147.315 185.678 149.928 189.555 150.379C190.774 147.433 193.058 145.067 194.404 142.666C195.197 141.254 194.487 139.399 194.564 137.368C194.708 133.541 195.937 123.453 193.003 120.475C191.145 118.59 185.498 118.068 182.257 118.353C180.569 120.096 179.11 125.206 176.19 124.266C174.369 120.356 182.912 120.826 180.513 105.533C178.091 90.0979 171.648 97.383 167.486 95.4729C167.281 90.0004 178.27 93.9635 178.414 93.9927C179.707 87.2136 181.333 82.4029 180.211 74.8638C179.27 68.5384 175.949 63.9458 170.501 62.4748L171.385 63.8813C173.651 67.3584 172.232 73.0596 171.072 76.6902C169.361 82.0444 168.085 84.4251 161.746 83.7434ZM132.692 17.8034C130.592 18.4836 129.356 18.6755 128.406 20.7108C127.593 22.4512 126.977 24.3882 127.273 26.6868C127.476 28.2576 128.47 30.7535 129.148 31.9581C130.073 33.5972 131.98 35.049 131.107 36.7242C129.166 39.0765 126.031 31.9259 125.572 30.7604C123.931 26.5932 124.422 24.1395 125.572 20.1319C118.268 20.9419 114.483 22.0896 106.692 20.6002C100.482 19.4141 96.2802 17.2951 89.2979 18.1673C83.4297 18.9012 78.9346 21.5031 73.8517 23.2466C60.0092 27.9981 51.4086 26.9241 37.145 24.1955C23.9487 21.6704 14.9892 19.249 7.03564 31.955C0.140878 42.9713 -5.02577 70.6666 8.20052 79.3719C11.583 81.5983 19.0855 83.4586 23.3024 85.1107C28.6228 87.1959 32.7206 89.5045 37.2572 91.8614C35.5928 88.9755 27.3065 81.3504 24.3229 78.6295C23.2325 77.6353 22.2935 76.8829 21.4322 76.0553C18.8665 73.5909 15.305 72.0892 16.7204 70.3311C17.9729 68.7756 20.2773 71.5356 22.7123 73.4143L38.5365 88.6776C52.2392 104.458 61.7073 119.055 72.5716 137.336C79.026 148.199 82.4876 153.762 98.8052 152.278C98.673 149.766 92.0149 141.15 89.8296 138.863C88.3973 137.364 86.5171 136.98 87.0788 134.489C89.3909 133.828 90.5642 135.851 91.7821 137.256C95.0101 140.98 100.123 147.3 101.648 152.019C102.542 154.787 105.887 159.967 107.499 162.538C109.666 165.993 111.794 169.207 113.895 172.542C117.821 178.774 134.144 203.506 139.497 210.473L140.553 211.601C147.104 207.549 150.37 210.472 153.508 215.614C156.311 220.208 158.722 225.786 156.121 231.8C160.072 230.638 159.741 228.473 159.782 224.453L159.874 212.841C159.874 205.961 159.609 206.24 157.062 200.787C155.6 197.656 153.359 193.986 152.145 191.034C146.115 191.32 143.883 196.011 142.245 194.026C140.529 191.087 148.644 189.407 150.589 188.251L137.434 161.665C131.481 161.231 128.835 165.513 127.378 164.182C126.295 161.974 128.505 161.31 130.178 160.465C132.263 159.413 132.318 159.592 134.215 159.15C134.491 159.085 134.78 159.024 135.045 158.925C135.726 158.674 135.461 158.823 135.832 158.537C133.225 152.846 130.089 147.096 127.846 141.188C123.427 129.553 129.021 125.124 125.681 119.44C120.476 110.586 108.868 118.516 108.885 83.4017C108.886 77.2407 109.616 69.409 111.653 64.0725C113.849 58.3214 117.345 55.1614 122.412 52.5649C119.403 51.4356 110.646 53.8447 106.326 57.4009C104.816 58.6438 103.028 60.6584 102.268 60.5593C99.9408 59.4453 101.279 58.0434 102.506 57.0039C112.051 48.9204 116 50.3477 128.07 49.3366C131.608 49.0394 135.201 47.3205 138.071 46.0683C151.907 40.0308 160.016 32.5654 159.933 14.0714C159.913 9.693 159.487 6.6973 157.227 3.90121C155.487 1.74771 152.061 -0.481026 147.736 0.0909369C148.64 9.17094 153.914 10.7955 147.472 19.2751C146.122 21.0524 143.15 23.9099 139.53 24.1049C134.238 24.3898 134.26 21.1184 132.69 17.8041L132.692 17.8034Z" fill="url(#paint0_linear_1_104)"/>
<defs>
<linearGradient id="paint0_linear_1_104" x1="61.8748" y1="-87.3265" x2="296.886" y2="251.009" gradientUnits="userSpaceOnUse">
<stop stop-color="#EBB57C"/>
<stop offset="1" stop-color="#94622C"/>
</linearGradient>
</defs>
</svg>
