<svg width="338" height="321" viewBox="0 0 338 321" fill="none" xmlns="http://www.w3.org/2000/svg">
<path fill-rule="evenodd" clip-rule="evenodd" d="M147.808 170.179C147.639 169.344 149.266 167.95 149.577 167.649C154.307 163.094 155.039 162.977 155.329 156.328L193.107 156.126C187.279 160.574 182.825 160.755 169.794 172.26C168.197 171.238 168.997 171.904 167.579 170.204C166.727 169.187 166.579 168.865 165.811 167.732C164.537 165.863 164.307 164.742 162.015 164.067C159.604 167.109 160.379 167.438 156.297 169.35C153.486 170.667 150.727 171.527 147.805 170.176L147.808 170.179ZM247.772 98.1903C249.562 97.8097 264.11 95.621 264.82 95.6271C264.802 100.244 264.048 119.31 266.475 121.88C268.268 120.833 267.45 122.595 268.44 115.777L272.894 97.1466C275.502 85.8561 272.559 78.0436 273.429 68.1866L302.03 68.116C299.526 73.0982 283.576 80.923 279.931 90.0801C277.369 96.5081 280.715 102.055 284.059 106.27C286.107 108.852 291.923 116.498 295.882 116.63C295.033 112.79 286.095 108.189 289.029 96.327C290.404 90.7708 298.499 82.8017 303.365 81.2208C303.143 88.1922 300.876 120.314 303.229 123.921L303.884 122.932C304.484 121.677 303.977 123.2 304.543 121.364C305.595 117.96 304.758 118.61 307.222 112.36C315.501 91.3356 309.089 89.77 311.743 68.1498C315.935 68.0086 322.554 69.0554 325.86 67.5174C325.869 67.5113 328.096 67.1859 325.221 63.8829C324.307 62.8361 322.932 61.9766 321.788 60.896C317.916 57.2369 319.321 58.1179 312.401 58.081C311.829 54.1426 313.284 54.7565 309.965 52.8625C307.766 51.61 306.253 50.5172 303.888 50.3115L304.004 58.0197L273.137 57.8999C272.42 53.3598 273.3 54.6736 269.855 52.7827C267.61 51.5486 266.558 50.3115 263.454 50.069L263.482 57.8293C258.195 57.9797 251.555 57.1693 246.797 58.2959C246.843 61.3595 249.085 62.7409 252.333 67.9227L263.919 68.3463C264.691 76.9047 265.26 80.9629 261.117 86.0587C258.54 89.2267 253.52 92.763 248.091 94.0861C243.478 87.3695 249.189 92.8828 241.11 85.7579C243.764 80.0604 247.242 77.7919 247.006 69.5128C246.837 63.6465 241.86 58.5108 236.834 56.8286C225.116 52.9055 215.87 67.7937 212.742 76.5855C213.699 78.6146 215.326 80.1095 216.667 81.8562C218.174 83.827 218.731 85.8377 222 85.7763C223.778 80.1894 222.649 79.8855 227.896 73.3622C230.105 70.6148 234.106 65.6418 239.049 65.1476C238.338 73.6815 230.437 79.3851 226.085 83.6397C226.614 86.3749 229.25 90.2612 231.129 91.9557L236.844 90.034C238.914 102.795 224.261 110.899 212.266 105.984C204.097 102.638 195.153 91.4523 195.389 78.6944C195.709 61.3012 215.209 35.7057 236.118 36.7371L241.005 36.3718C238.483 32.3412 222.213 34.7663 218.036 35.939C201.688 40.519 181.207 62.0533 185.707 83.8516C190.351 106.353 219.094 118.534 235.164 113.039C242.386 110.568 245.532 105.748 247.768 98.1873L247.772 98.1903ZM227.758 200.926C228.146 194.353 234.749 195.219 239.07 193.098C239.117 189.015 236.819 185.991 235.247 182.271C227.577 182.28 218.199 190.473 216.805 196.966C213.081 214.346 253.917 217.643 250.294 192.524C249.399 186.332 241.54 173.602 236.016 174.385C236.539 177.46 244.951 180.837 242.983 191.701C241.937 197.487 234.195 202.952 227.758 200.926ZM304.939 265.062C305.718 266.793 309.187 270.593 310.556 271.318C313.038 270.271 314.865 268.386 315.689 265.062C314.929 263.708 311.767 259.963 310.556 258.704C308.141 259.665 305.782 263.033 304.939 265.062ZM310.556 256.592C312.835 255.466 314.551 252.85 316.003 250.244C315.486 248.353 314.868 247.883 313.659 246.431C312.112 244.571 311.583 243.712 309.848 243.138C305.324 248.74 303.811 251.14 310.556 256.592ZM271.196 254.054C270.212 258.723 265.854 272.322 259.896 266.959C256.746 264.129 259.911 259.684 261.772 257.998C264.014 255.963 267.287 254.523 271.196 254.051V254.054ZM222.751 267.699C228.788 265.028 235.703 260.976 240.559 256.602C246.415 251.334 249.457 248.476 250.407 237.538C263.316 237.136 255.258 240.838 264.857 241.053L266.023 237.416L270.968 237.683C272.592 240.326 272.697 242.152 272.7 245.498C260.287 246.702 239.36 256.703 255.898 267.395C278.052 281.718 277.584 265.329 279.872 252.654L291.52 251.625L291.003 280.595C288.18 283.698 277.28 285.015 272.383 285.162C265.371 285.374 259.302 283.931 253.523 281.666C250.878 280.628 225.03 270.394 222.748 267.696L222.751 267.699ZM279.039 237.191L291.523 237.026L291.48 242.729L279.783 244.261L279.036 237.191H279.039ZM168.406 238.355C167.524 244.774 165.346 248.51 161.957 252.912C160.929 254.25 152.514 263.205 149.322 260.199C145.188 256.304 154.729 244.596 160.111 240.488C162.87 238.383 163.654 238.217 168.409 238.358L168.406 238.355ZM169.114 227.602C162.277 227.847 139.516 226.361 135.25 228.265C133.054 230.294 139.981 234.665 143.524 238.251C142.42 242.177 140.135 244.488 139.707 250.339C138.348 268.877 153.634 271.029 167.502 261.839L167.265 273.193C160.662 272.441 158.352 263.499 136.142 277.936C126.515 284.192 119.801 290.424 111.912 297.5C98.1976 309.806 85.7103 320.897 65.8444 314.485C62.2243 313.318 53.4248 308.364 50.6166 308.287C52.5297 313.539 72.5802 319.93 80.8845 320.744C107.092 323.316 119.644 306.006 138.486 291.563C144.364 287.06 157.574 275.539 166.776 276.552C167.788 284.776 164.743 297.61 167.059 300.118C167.794 298.906 171.024 288.941 171.331 287.053C173.001 276.825 174.933 279.618 175.84 273.233C177.286 263.042 176.695 249.357 177.409 238.64L184.661 238.125C184.926 244.918 182.032 293.006 182.616 295.216C183.05 296.843 182.616 295.833 183.32 296.637C184.428 295.09 184.861 286.593 186.833 282.688C189.143 278.108 195.728 261.716 196.168 256.617C196.7 250.456 195.368 244.31 195.851 238.048L210.999 237.962C209.759 241.038 209.372 239.742 207.935 242.478C209.175 244.599 210.494 244.878 212.573 246.441C214.456 247.847 215.677 249.357 217.956 249.977C220.73 246.048 222.788 243.638 226.232 240.86C229.05 238.588 241.399 233.849 240.251 240.777C239.27 246.708 219.244 256.912 214.028 259.036C206.191 262.228 206.496 255.573 201.959 258.907C196.623 262.566 204.161 270.94 211.583 270.781C221.167 270.581 213.819 266.971 229.419 276.22C240.224 282.627 248.642 288.708 261.489 293.595C278.962 300.244 287.202 294.123 302.928 290.688C327.776 285.261 331.421 301.165 338 303.673C337.754 299.375 325.097 285.276 322.252 282.311C311.454 271.054 306.037 278.028 293.224 280.208L298.471 259.96C300.916 252.203 299.277 245.068 300.27 237.152L319.98 236.759C319.081 232.458 310.469 227.666 308.495 227.424C297.235 226.042 302.177 229.532 292.889 223.264L291.975 224.931C291.92 225.078 291.834 225.305 291.782 225.462C291.674 225.787 291.677 226.561 291.474 227.249C286.587 227.657 281.53 227.47 276.609 227.473C270.965 227.473 267.551 225.14 263.378 225.87C257.909 226.825 264.06 227.519 250.463 227.522C242.223 227.525 243.321 225.45 237.723 224.82C231.56 224.124 229.803 226.681 225.565 227.39C222.182 227.958 198.431 228.182 195.949 227.015C193.135 225.689 189.619 222.49 185.224 221.797L185.234 227.445C176.376 227.863 179.534 227.549 177.846 226.033C175.834 224.222 172.611 222.273 169.886 221.861L169.114 227.599V227.602ZM266.469 26.4964C266.198 20.5933 273.423 20.3723 277.79 18.8804C277.36 15.3717 274.942 10.9666 273.706 8.03499C266.564 7.73108 256.851 15.5896 255.332 22.4137C251.379 40.1384 292.344 43.3248 288.786 18.248C287.9 12.0042 280.088 -0.471278 274.628 0.0137416C274.881 2.97605 283.443 6.80402 281.472 17.2995C280.528 22.3431 272.377 29.6122 266.469 26.4964ZM315.163 82.2338C316.264 84.1647 320.813 89.0763 322.326 90.1722C324.993 89.1223 327.872 84.9659 329.474 81.5278C328.481 79.6828 323.655 74.4796 322.326 73.7245C320.229 74.7989 315.935 79.3053 315.163 82.2338ZM322.326 108.373C324.196 107.501 329.523 101.401 330.338 99.8695C329.265 98.0154 325.177 92.4284 323.738 91.4369C321.619 92.4591 316.965 97.601 316.802 99.274C316.596 101.361 320.998 107.387 322.323 108.373H322.326ZM98.2622 145.421C96.3368 142.263 92.9105 138.656 95.897 133.026C103.878 117.99 154.84 102.684 184.391 119.596C191.573 123.706 199.194 132.136 190.228 140.415C183.493 146.631 173.337 145.081 162.024 145.188C156.423 145.24 150.61 145.418 145.031 145.354C139.526 145.289 136.241 143.497 130.194 143.88C124.519 144.24 121.536 145.569 114.665 145.575C109.341 145.581 103.5 145.974 98.2622 145.421ZM94.4822 145.609C88.5984 145.833 72.1496 145.065 68.2096 146.318C68.0374 149.256 70.2888 150.932 71.722 153.01C74.3794 156.859 73.2076 156.795 78.8976 157.172C80.4416 164.878 76.0926 170.931 70.1319 172.322C67.6037 171.161 67.3023 169.774 65.097 168.045C63.3316 166.664 60.791 166.465 59.0625 165.178C60.5511 159.941 63.7529 152.927 62.658 146.453C61.7906 141.326 55.8484 135.261 50.9704 134.73C45.7325 134.162 40.0793 141.928 37.5327 144.648C34.5769 147.801 29.5451 153.79 28.5701 158.83C30.6216 161.077 36.0686 165.933 39.7349 165.743C42.9028 159.392 45.3357 148.872 52.0407 147.067C51.9392 157.921 45.5172 163.947 44.3945 168.709C46.2123 171.315 49.8139 173.147 53.8738 174.071C55.3717 172.73 55.4055 171.757 57.4078 170.636C67.6314 176.331 58.5888 192.861 40.9436 199.517C11.174 210.752 9.13788 196.404 0 194.654C0.898102 199.311 11.257 206.552 16.7902 208.575C23.7228 211.108 36.3239 211.565 43.5456 210.018C53.7815 207.826 65.2754 199.394 69.2246 190.378C71.7067 184.708 70.3995 182.501 71.2269 176.945L79.4513 176.34C79.4789 181.304 78.3379 206.092 80.7369 208.419C82.9606 206.823 81.6504 206.319 82.7915 203.17C83.4927 201.236 84.5784 200.219 85.2151 197.942C85.8518 195.661 85.8487 193.313 86.47 191.287C87.1712 189.006 88.1186 188.235 88.9705 186.037C91.6433 179.152 88.6629 164.666 90.2808 157.102L96.792 156.911C97.3518 163.042 96.0969 175.084 95.7032 181.534C95.3741 186.872 93.9839 202.51 94.7528 205.324C95.125 206.687 94.9558 206.23 95.5833 207.099C97.8685 205.545 96.7336 204.806 98.0899 202.224C99.76 199.05 102.906 197.555 104.866 185.598C106.367 176.42 105.272 166.219 107.191 156.939L114.745 156.721L117.239 161.037C121.376 159.177 121.739 156.792 127.355 156.543C132.162 156.331 137.748 156.445 142.592 156.528C142.192 162.609 133.368 167.521 131.132 168.27C127.589 169.458 121.751 162.621 113.345 168.693C113.155 172.801 118.879 178.701 122.157 180.297C129.813 184.024 130.834 175.462 137.819 180.183C143.89 184.284 149.968 189.917 154.224 195.547C155.796 197.626 156.854 200.198 159.967 200.646C157.989 193.89 144.056 179.563 141.574 173.648C145.877 170.538 143.293 171.339 148.356 175.336C150.066 176.69 151.367 177.27 153.388 178.041C158.982 180.171 161.763 179.422 167.687 178.636C168.978 180.681 169.732 183.431 170.738 185.439C172.079 188.1 173.22 189.967 174.589 192.183C175.979 194.427 176.972 196.128 178.304 198.319C179.873 200.904 180.223 203.105 183.769 203.182C183.277 200.229 174.57 191.94 179.014 182.863C181.429 177.942 189.373 173.289 194.328 170.428C195.771 178.82 192.095 213.112 195.257 217.183C197.25 215.344 195.958 213.376 196.983 209.883C197.536 207.998 199.182 205.908 200.024 203.79C200.999 201.334 201.218 198.872 202.165 196.784C203.236 194.427 204.589 193.506 205.721 191.056C208.23 185.632 207.6 164.049 207.6 156.258L226.282 155.555C226.638 151.791 223.157 150.385 218.632 144.857L202.31 144.866C206.585 126.653 197.948 118.402 186.455 111.866C174.951 105.324 159.945 101.49 144.339 101.8C126.245 102.156 99.0711 109.935 90.739 125.803C85.5627 135.66 91.1912 139.939 94.4852 145.606L94.4822 145.609Z" fill="url(#paint0_linear_1_90)"/>
<defs>
<linearGradient id="paint0_linear_1_90" x1="8.03678" y1="-68.9972" x2="354.577" y2="295.889" gradientUnits="userSpaceOnUse">
<stop stop-color="#EBB57C"/>
<stop offset="1" stop-color="#94622C"/>
</linearGradient>
</defs>
</svg>
